<?xml version="1.0" encoding="utf-8"?>
<!-- Generator: Adobe Illustrator 26.5.1, SVG Export Plug-In . SVG Version: 6.00 Build 0)  -->
<svg version="1.1" id="Layer_1" xmlns="http://www.w3.org/2000/svg" xmlns:xlink="http://www.w3.org/1999/xlink" x="0px" y="0px"
	 viewBox="0 0 375 375" style="enable-background:new 0 0 375 375;" xml:space="preserve">
<g>
	<g>
		<path d="M198.58,35.63c26.74,0,56.04,11.96,87.88,35.86c35.28,33.51,52.91,71.77,52.91,114.78c0,50.16-22.14,92.05-66.43,125.66
			c-26.45,17.34-54.81,26.01-85.09,26.01c-54.96,0-98.66-25.13-131.09-75.4c-13.72-24.29-20.58-49.72-20.58-76.27
			c0-48.79,21.21-89.75,63.64-122.87c23.22-15.96,47.76-25.22,73.63-27.77H198.58z M104.37,143.21v96.99
			c0.79,5.98,3.77,8.97,8.97,8.97h148.88c5.97-0.88,8.96-3.87,8.96-8.97v-95.96c0-3.63-1.77-6.66-5.29-9.11H109.66
			C106.14,137.28,104.37,139.97,104.37,143.21z M114.22,144.24h0.88c5.69,3.82,23.62,18.46,53.79,43.94
			c6.27,5.48,12.59,10.53,18.96,15.14c25.48-20.68,48.45-39.78,68.93-57.32l1.03,1.76c-11.27,9.8-24.45,22.64-39.54,38.51
			l43.95,52.02v1.91l-50.27-49.37h-0.88c0,1.66-7.74,9.74-23.22,24.25l-25.13-23.37c-16.46,17.24-33.21,33.7-50.27,49.38v-1.77
			l44.83-53.05C152.58,180.78,138.22,166.77,114.22,144.24z"/>
	</g>
</g>
</svg>
