<?xml version="1.0" encoding="utf-8"?>
<!-- Generator: Adobe Illustrator 26.5.1, SVG Export Plug-In . SVG Version: 6.00 Build 0)  -->
<svg version="1.1" id="Layer_1" xmlns="http://www.w3.org/2000/svg" xmlns:xlink="http://www.w3.org/1999/xlink" x="0px" y="0px"
	 viewBox="0 0 375 375" style="enable-background:new 0 0 375 375;" xml:space="preserve">
<g>
	<g>
		<path d="M188,38.34c49.41,0,90.33,21.39,122.81,64.15c18.38,27.37,27.58,55.8,27.58,85.39c0,51.89-22.81,94.03-68.47,126.4
			c-17.25,10.71-29.44,16.03-36.57,16.03l-3.46-4.47v-38.28c-0.38-4.62-3.08-10.27-8.08-16.9c20.8-3.49,35.92-9.4,45.36-17.78
			c12.52-12.72,18.79-29.32,18.79-49.82v-10.71c-0.98-8.47-4.82-17.96-11.57-28.47c-0.86,0-1.77-0.92-2.75-2.72
			c1.83-5.71,2.75-10.74,2.75-15.18v-1.74c-1.36-14.24-3.43-21.37-6.21-21.37c-9.74,0-22.19,5.06-37.43,15.15
			c-12.61-2.99-21.51-4.47-26.72-4.47h-19.5c-3.07,0-11.71,1.48-25.86,4.47c-14.43-10.09-27.19-15.15-38.28-15.15
			c-2.49,3.76-4.29,11.16-5.36,22.25v1.87c1.75,8.87,2.61,13.58,2.61,14.17c-9.44,12.51-14.15,25.83-14.15,40
			c0,29,10.68,48.88,32.08,59.68c6.83,4.14,16.6,7.1,29.32,8.94h2.6v1.74c-3.37,3.76-6.3,9.97-8.82,18.64
			c-5.2,1.84-11.12,2.75-17.78,2.75h-1c-8.67,0-17.52-7.42-26.57-22.25c-6.45-5.41-12.73-8.1-18.79-8.1l-4.47,1.89
			c0,1.63,4.47,6.36,13.43,14.14c2.01,2.31,6.16,9.74,12.43,22.25c6.45,6.54,16.57,9.83,30.33,9.83c3.67-0.57,7.81-0.86,12.42-0.86
			l0.86,1.71v16.93c-2.99,3.55-4.47,5.97-4.47,7.22c-38.81-10.89-67.57-29.56-86.24-56.07c-20.8-27.64-31.22-57.93-31.22-90.87
			c0-53.25,24.62-96.54,73.82-129.86C137.05,45.18,162.58,38.34,188,38.34z"/>
	</g>
</g>
</svg>
