<?xml version="1.0" encoding="utf-8"?>
<!-- Generator: Adobe Illustrator 26.5.1, SVG Export Plug-In . SVG Version: 6.00 Build 0)  -->
<svg version="1.1" id="Layer_1" xmlns="http://www.w3.org/2000/svg" xmlns:xlink="http://www.w3.org/1999/xlink" x="0px" y="0px"
	 viewBox="0 0 375 375" style="enable-background:new 0 0 375 375;" xml:space="preserve">
<g>
	<g>
		<path d="M185.06,35.63h7.05c31.65,0,63.25,12.2,94.79,36.59c23.42,23.52,37.72,44.68,42.92,63.49c3.52,7.84,5.87,16.78,7.05,26.82
			c1.18,10.04,1.77,16.59,1.77,19.63v7.93v6.32c-2.36,21.66-7.11,39.83-14.26,54.53c-15.78,31.93-39.87,56.04-72.31,72.3
			c-23.21,9.61-44.09,14.4-62.61,14.4h-1.76c-37.43,0-71.67-13.71-102.73-41.15c-19.49-20.28-31.69-38.16-36.59-53.64
			c-5.39-12.05-8.97-27.23-10.73-45.56v-18.81c0-30.77,12.79-62.02,38.36-93.76C109.52,51.99,145.87,35.63,185.06,35.63z
			 M127.89,132.04v5.44c1.66,8.91,7.3,13.37,16.9,13.37c7.84,0,13.23-4.46,16.16-13.37v-0.89c0-9.21-5.68-14.59-17.04-16.16
			C136.95,120.43,131.61,124.3,127.89,132.04z M204.75,171.42h-1.91v-8.96h-28.51v84.95c0.19,1.17,0.78,1.76,1.76,1.76h24.99
			c1.17,0,1.76-0.59,1.76-1.76v-45.56c1.47-12.55,6.57-18.82,15.29-18.81c10.09-0.01,15.13,6.26,15.13,18.81v45.56
			c0.2,1.17,0.78,1.76,1.77,1.76h26.89v-56.29c0-10.09-4.8-19.34-14.4-27.77c-7.26-2.94-11.71-4.41-13.38-4.41h-8.96
			C218.22,160.99,211.41,164.56,204.75,171.42z M129.65,164.23v83.18c0.2,1.17,0.79,1.76,1.77,1.76h24.98
			c1.18,0,1.76-0.59,1.76-1.76v-81.42l-1.76-3.53h-24.98C130.24,162.66,129.65,163.24,129.65,164.23z"/>
	</g>
</g>
</svg>
